<?xml version="1.0" encoding="UTF-8"?>
<svg version="1.1" xmlns="http://www.w3.org/2000/svg" width="300" height="300">
<path d="M0 0 C99 0 198 0 300 0 C300 99 300 198 300 300 C201 300 102 300 0 300 C0 201 0 102 0 0 Z " fill="#7CB342" transform="translate(0,0)"/>
<path d="M0 0 C9.9 0 19.8 0 30 0 C30 79.2 30 158.4 30 240 C10.2 240 -9.6 240 -30 240 C-30 230.1 -30 220.2 -30 210 C-39.9 210 -49.8 210 -60 210 C-60 200.1 -60 190.2 -60 180 C-69.9 180 -79.8 180 -90 180 C-90 170.1 -90 160.2 -90 150 C-109.8 150 -129.6 150 -150 150 C-150 159.9 -150 169.8 -150 180 C-159.9 180 -169.8 180 -180 180 C-180 150.3 -180 120.6 -180 90 C-170.1 90 -160.2 90 -150 90 C-150 80.1 -150 70.2 -150 60 C-130.2 60 -110.4 60 -90 60 C-90 69.9 -90 79.8 -90 90 C-80.1 90 -70.2 90 -60 90 C-60 109.8 -60 129.6 -60 150 C-50.1 150 -40.2 150 -30 150 C-30 120.3 -30 90.6 -30 60 C-20.1 60 -10.2 60 0 60 C0 40.2 0 20.4 0 0 Z " fill="#7CB342" transform="translate(270,60)"/>
<path d="M0 0 C29.7 0 59.4 0 90 0 C90 19.8 90 39.6 90 60 C80.1 60 70.2 60 60 60 C60 79.8 60 99.6 60 120 C50.1 120 40.2 120 30 120 C30 149.7 30 179.4 30 210 C20.1 210 10.2 210 0 210 C0 190.2 0 170.4 0 150 C-9.9 150 -19.8 150 -30 150 C-30 140.1 -30 130.2 -30 120 C-49.8 120 -69.6 120 -90 120 C-90 100.2 -90 80.4 -90 60 C-109.8 60 -129.6 60 -150 60 C-150 45.15 -150 30.3 -150 15 C-135.15 15 -120.3 15 -105 15 C-105 24.9 -105 34.8 -105 45 C-70.35 45 -35.7 45 0 45 C0 30.15 0 15.3 0 0 Z " fill="#7CB342" transform="translate(210,0)"/>
<path d="M0 0 C19.8 0 39.6 0 60 0 C60 9.9 60 19.8 60 30 C50.1 30 40.2 30 30 30 C30 59.7 30 89.4 30 120 C39.9 120 49.8 120 60 120 C60 110.1 60 100.2 60 90 C79.8 90 99.6 90 120 90 C120 99.9 120 109.8 120 120 C129.9 120 139.8 120 150 120 C150 129.9 150 139.8 150 150 C159.9 150 169.8 150 180 150 C180 159.9 180 169.8 180 180 C100.8 180 21.6 180 -60 180 C-60 160.2 -60 140.4 -60 120 C-40.2 120 -20.4 120 0 120 C0 80.4 0 40.8 0 0 Z " fill="#FFFFFF" transform="translate(60,120)"/>
<path d="M0 0 C19.8 0 39.6 0 60 0 C60 19.8 60 39.6 60 60 C40.2 60 20.4 60 0 60 C0 99.6 0 139.2 0 180 C-19.8 180 -39.6 180 -60 180 C-60 165.15 -60 150.3 -60 135 C-55.05 135 -50.1 135 -45 135 C-45 105.3 -45 75.6 -45 45 C-30.15 45 -15.3 45 0 45 C0 30.15 0 15.3 0 0 Z " fill="#7CB342" transform="translate(60,60)"/>
<path d="M0 0 C29.7 0 59.4 0 90 0 C90 4.95 90 9.9 90 15 C70.2 15 50.4 15 30 15 C30 29.85 30 44.7 30 60 C10.2 60 -9.6 60 -30 60 C-30 79.8 -30 99.6 -30 120 C-49.8 120 -69.6 120 -90 120 C-90 100.2 -90 80.4 -90 60 C-109.8 60 -129.6 60 -150 60 C-150 45.15 -150 30.3 -150 15 C-135.15 15 -120.3 15 -105 15 C-105 24.9 -105 34.8 -105 45 C-70.35 45 -35.7 45 0 45 C0 30.15 0 15.3 0 0 Z " fill="#FFFFFF" transform="translate(210,0)"/>
<path d="M0 0 C19.8 0 39.6 0 60 0 C60 9.9 60 19.8 60 30 C69.9 30 79.8 30 90 30 C90 39.9 90 49.8 90 60 C99.9 60 109.8 60 120 60 C120 69.9 120 79.8 120 90 C60.6 90 1.2 90 -60 90 C-60 85.05 -60 80.1 -60 75 C-25.35 75 9.3 75 45 75 C45 60.15 45 45.3 45 30 C30.15 30 15.3 30 0 30 C0 20.1 0 10.2 0 0 Z " fill="#FFFFFF" transform="translate(120,210)"/>
<path d="M0 0 C14.85 0 29.7 0 45 0 C45 14.85 45 29.7 45 45 C10.35 45 -24.3 45 -60 45 C-60 49.95 -60 54.9 -60 60 C-74.85 60 -89.7 60 -105 60 C-105 45.15 -105 30.3 -105 15 C-70.35 15 -35.7 15 0 15 C0 10.05 0 5.1 0 0 Z " fill="#7CB342" transform="translate(120,240)"/>
<path d="M0 0 C19.8 0 39.6 0 60 0 C60 14.85 60 29.7 60 45 C45.15 45 30.3 45 15 45 C15 74.7 15 104.4 15 135 C10.05 135 5.1 135 0 135 C0 90.45 0 45.9 0 0 Z " fill="#FFFFFF" transform="translate(0,60)"/>
<path d="M0 0 C19.8 0 39.6 0 60 0 C60 29.7 60 59.4 60 90 C50.1 90 40.2 90 30 90 C30 70.2 30 50.4 30 30 C20.1 30 10.2 30 0 30 C0 20.1 0 10.2 0 0 Z " fill="#FFFFFF" transform="translate(180,120)"/>
<path d="M0 0 C19.8 0 39.6 0 60 0 C60 19.8 60 39.6 60 60 C40.2 60 20.4 60 0 60 C0 40.2 0 20.4 0 0 Z " fill="#7CB342" transform="translate(180,60)"/>
<path d="M0 0 C4.95 0 9.9 0 15 0 C15 39.6 15 79.2 15 120 C0.15 120 -14.7 120 -30 120 C-30 110.1 -30 100.2 -30 90 C-20.1 90 -10.2 90 0 90 C0 60.3 0 30.6 0 0 Z " fill="#FFFFFF" transform="translate(285,135)"/>
<path d="M0 0 C19.8 0 39.6 0 60 0 C60 14.85 60 29.7 60 45 C40.2 45 20.4 45 0 45 C0 30.15 0 15.3 0 0 Z " fill="#7CB342" transform="translate(0,15)"/>
<path d="M0 0 C9.9 0 19.8 0 30 0 C30 19.8 30 39.6 30 60 C20.1 60 10.2 60 0 60 C0 40.2 0 20.4 0 0 Z " fill="#FFFFFF" transform="translate(240,60)"/>
<path d="M0 0 C19.8 0 39.6 0 60 0 C60 4.95 60 9.9 60 15 C40.2 15 20.4 15 0 15 C0 10.05 0 5.1 0 0 Z " fill="#FFFFFF" transform="translate(0,0)"/>
<path d="M0 0 C9.9 0 19.8 0 30 0 C30 4.95 30 9.9 30 15 C20.1 15 10.2 15 0 15 C0 10.05 0 5.1 0 0 Z " fill="#FFFFFF" transform="translate(270,45)"/>
</svg>
