<?xml version="1.0" standalone="no"?>
<!DOCTYPE svg PUBLIC "-//W3C//DTD SVG 20010904//EN"
 "http://www.w3.org/TR/2001/REC-SVG-20010904/DTD/svg10.dtd">
<svg version="1.0" xmlns="http://www.w3.org/2000/svg"
 width="300.000000pt" height="300.000000pt" viewBox="0 0 300.000000 300.000000"
 preserveAspectRatio="xMidYMid meet">

<g transform="translate(0.000000,300.000000) scale(0.100000,-0.100000)"
fill="#000000" stroke="none">
<path d="M540 2089 c-100 -8 -178 -45 -253 -120 -80 -81 -110 -148 -115 -264
-5 -107 19 -191 74 -267 58 -79 159 -144 252 -163 l32 -7 0 251 0 251 231 0
230 0 -7 23 c-18 61 -60 131 -104 175 -93 93 -205 133 -340 121z"/>
<path d="M1215 1720 c-3 -5 -15 -10 -26 -10 -15 0 -19 -7 -19 -34 0 -19 5 -36
12 -38 9 -3 9 -18 0 -63 -7 -32 -12 -73 -12 -92 0 -33 0 -33 50 -33 l50 0 0
-100 c0 -60 -4 -100 -10 -100 -5 0 -10 -13 -10 -30 0 -25 4 -30 24 -30 13 0
27 7 30 16 3 9 6 67 6 130 l0 114 46 0 45 0 -3 37 c-3 36 -4 37 -43 38 -39 0
-40 1 -43 38 -4 51 -35 48 -42 -3 -3 -24 -11 -36 -24 -38 -30 -6 -36 10 -22
63 l12 50 80 1 79 0 3 37 3 37 -70 0 c-38 0 -73 5 -76 10 -3 6 -12 10 -20 10
-8 0 -17 -4 -20 -10z"/>
<path d="M1460 1516 c0 -117 -3 -234 -6 -260 -6 -42 -5 -46 15 -46 20 0 21 4
21 105 l0 105 95 0 95 0 0 30 0 30 -95 0 -95 0 0 30 0 30 95 0 95 0 0 30 0 29
-92 3 -93 3 0 30 0 30 93 3 92 3 0 29 0 30 -110 0 -110 0 0 -214z"/>
<path d="M1730 1465 l0 -265 104 0 c65 0 107 4 112 11 6 10 6 82 5 422 l-1 97
-110 0 -110 0 0 -265z m188 -2 l2 -203 -80 0 -80 0 0 198 c0 109 3 202 7 206
4 4 39 5 78 4 l70 -3 3 -202z"/>
<path d="M1778 1595 c-6 -29 -2 -35 24 -35 13 0 18 -8 18 -30 0 -23 -4 -30
-20 -30 -16 0 -20 -7 -20 -30 0 -23 4 -30 20 -30 17 0 20 -7 20 -41 0 -32 -4
-42 -20 -46 -14 -4 -20 -14 -20 -34 0 -29 1 -29 60 -29 41 0 60 4 61 13 4 59
4 90 -3 100 -7 11 -10 5 -24 -41 -8 -26 -24 0 -24 38 0 35 3 39 28 42 21 2 28
9 30 31 3 24 0 27 -27 27 -28 0 -31 3 -31 30 0 27 3 30 29 30 26 0 30 3 29 30
l-1 30 -62 0 c-59 0 -63 -2 -67 -25z"/>
<path d="M2000 1466 c0 -186 3 -267 11 -272 7 -4 16 1 21 10 5 9 17 16 26 16
10 0 23 5 30 12 9 9 12 8 12 -5 0 -19 30 -24 30 -4 0 6 5 4 11 -5 12 -22 35
-23 43 -2 3 9 7 66 8 127 1 62 3 85 5 52 7 -138 14 -185 30 -185 12 0 14 9 9
48 -3 26 -8 82 -12 125 -5 56 -10 77 -20 77 -8 0 -14 10 -14 25 0 18 5 25 20
25 16 0 20 7 20 35 l0 35 -60 0 -60 0 0 -34 c0 -28 4 -35 22 -38 30 -4 37 -38
9 -45 -19 -5 -21 -13 -21 -92 0 -83 -10 -125 -24 -103 -4 6 -6 112 -6 236 l0
226 -45 0 -45 0 0 -264z m60 118 c0 -93 -22 -100 -27 -9 -4 64 0 85 17 85 6 0
10 -30 10 -76z m0 -220 c0 -63 -3 -85 -12 -82 -8 3 -14 30 -16 72 -4 72 1 96
18 96 6 0 10 -34 10 -86z m90 -98 c-12 -12 -14 93 -2 145 5 27 8 15 10 -50 2
-49 -1 -88 -8 -95z"/>
<path d="M2110 1695 l0 -35 63 0 63 0 -4 35 -4 35 -59 0 -59 0 0 -35z"/>
<path d="M2290 1712 c0 -10 -5 -23 -11 -29 -14 -14 -7 -85 9 -91 6 -2 12 3 12
12 0 13 14 16 79 16 44 0 83 -4 86 -10 3 -5 12 -10 19 -10 16 0 29 71 16 84
-6 6 -10 18 -10 28 0 11 -7 18 -20 18 -13 0 -20 -7 -20 -20 0 -13 -7 -20 -19
-20 -10 0 -21 9 -24 20 -3 12 -14 20 -27 20 -17 0 -20 -4 -15 -20 5 -16 2 -20
-14 -20 -14 0 -21 6 -21 20 0 13 -7 20 -20 20 -13 0 -20 -7 -20 -18z"/>
<path d="M2598 1703 c-2 -17 -9 -28 -18 -28 -9 0 -16 -11 -18 -27 -3 -23 1
-28 17 -28 21 0 21 -4 21 -205 0 -176 2 -205 15 -205 13 0 15 29 15 205 0 196
1 205 19 205 15 0 19 6 18 28 -2 16 -8 27 -17 27 -9 0 -16 11 -18 28 -2 15 -9
27 -17 27 -8 0 -15 -12 -17 -27z"/>
<path d="M2724 1715 c-4 -8 -15 -15 -25 -15 -16 0 -19 -6 -16 -27 3 -26 7 -28
55 -31 52 -3 52 -3 52 27 0 24 -4 31 -20 31 -11 0 -20 7 -20 15 0 8 -5 15 -10
15 -6 0 -13 -7 -16 -15z"/>
<path d="M580 1460 l0 -260 265 0 265 0 0 260 0 260 -265 0 -265 0 0 -260z
m118 202 c6 -9 12 -27 12 -41 1 -22 4 -19 23 19 24 49 49 61 77 35 40 -36 36
-154 -6 -182 -22 -14 -26 -14 -48 1 -16 10 -26 27 -28 48 -3 28 -5 30 -12 13
-26 -67 -24 -65 -66 -65 l-40 0 0 93 c0 52 2 96 5 99 10 10 70 -5 83 -20z
m206 -25 l14 -42 1 42 c1 44 9 57 29 44 8 -5 11 -35 10 -97 -3 -81 -5 -89 -23
-89 -13 0 -22 10 -29 33 -12 43 -26 41 -19 -3 5 -31 3 -35 -16 -35 -20 0 -21
5 -21 93 0 52 3 96 6 100 13 13 34 -7 48 -46z m156 33 c11 -11 20 -25 20 -30
0 -17 -31 -24 -40 -10 -14 23 -30 0 -30 -45 0 -45 14 -65 33 -46 7 7 6 12 -6
17 -9 3 -17 15 -17 25 0 14 7 19 30 19 29 0 30 -2 30 -45 0 -36 -5 -48 -25
-61 -48 -32 -85 8 -85 92 0 88 45 129 90 84z m-366 -246 c17 -17 21 -50 7 -58
-5 -3 -14 1 -21 9 -19 23 -30 8 -30 -41 0 -32 4 -44 15 -44 8 0 15 7 15 16 0
26 25 10 28 -19 2 -19 -4 -30 -24 -43 -26 -18 -27 -18 -50 10 -18 21 -24 39
-24 77 0 88 43 135 84 93z m71 -18 c0 -42 21 -43 29 -1 4 21 13 35 21 35 12 0
15 -19 15 -101 0 -90 -2 -100 -17 -97 -13 2 -18 13 -19 38 0 38 -23 55 -25 18
-3 -48 -4 -53 -21 -56 -16 -3 -18 7 -18 98 0 91 2 101 18 98 11 -2 17 -13 17
-32z m175 9 c0 -20 -5 -25 -25 -25 -16 0 -25 -6 -25 -15 0 -9 9 -15 25 -15 18
0 25 -5 25 -20 0 -15 -7 -20 -25 -20 -16 0 -25 -6 -25 -15 0 -9 9 -15 25 -15
20 0 25 -5 25 -25 0 -23 -4 -25 -45 -25 l-45 0 0 93 c0 52 3 97 7 100 3 4 24
7 45 7 34 0 38 -3 38 -25z m47 17 c6 -4 15 -20 18 -35 11 -43 27 -44 23 -1 -2
31 1 39 15 42 15 3 17 -7 17 -97 0 -91 -2 -101 -18 -101 -13 0 -23 13 -33 43
l-14 42 -3 -42 c-4 -52 -29 -60 -34 -10 -5 48 3 167 10 167 4 0 12 -4 19 -8z"/>
<path d="M650 1584 c0 -32 4 -44 13 -42 15 6 21 32 13 64 -10 40 -26 27 -26
-22z"/>
<path d="M764 1617 c-10 -27 0 -72 16 -72 11 0 15 11 15 39 0 40 -20 61 -31
33z"/>
<path d="M2700 1601 c0 -11 -4 -23 -10 -26 -5 -3 -8 -16 -6 -28 4 -28 36 -36
36 -9 0 11 3 34 6 51 5 24 3 31 -10 31 -9 0 -16 -8 -16 -19z"/>
<path d="M2750 1586 c0 -44 9 -66 26 -66 9 0 14 11 14 30 0 17 -4 30 -10 30
-5 0 -10 9 -10 20 0 11 -4 20 -10 20 -5 0 -10 -15 -10 -34z"/>
<path d="M2570 1453 c0 -71 -3 -153 -6 -183 -6 -47 -4 -53 7 -42 18 17 27 352
10 352 -7 0 -11 -43 -11 -127z"/>
<path d="M2640 1416 c0 -172 3 -196 26 -196 8 0 14 -4 14 -10 0 -23 33 -8 43
20 6 17 15 30 18 30 4 0 10 -13 14 -30 7 -34 35 -41 35 -9 0 12 -7 42 -16 68
-16 42 -16 52 -1 116 9 38 14 71 12 73 -11 12 -35 -11 -35 -33 0 -35 -17 -32
-25 5 -4 17 -13 30 -21 30 -18 0 -18 -11 2 -81 20 -71 10 -134 -21 -134 -19 0
-20 9 -23 158 -4 214 -22 208 -22 -7z"/>
<path d="M2282 1538 l3 -33 69 0 c65 -1 93 -13 67 -30 -6 -3 -11 -17 -11 -31
0 -23 -2 -24 -69 -24 l-70 0 1 -30 1 -30 69 0 68 0 0 -50 0 -49 -57 -3 c-55
-3 -58 -4 -60 -30 l-2 -28 74 0 c72 0 74 0 79 28 3 15 5 38 4 52 -2 74 1 80
32 80 27 0 30 3 30 30 0 27 -3 30 -30 30 -37 0 -38 14 -5 62 14 20 25 48 25
62 l0 26 -111 0 -110 0 3 -32z"/>
<path d="M1217 1397 c-3 -8 -8 -40 -12 -71 -4 -31 -14 -63 -21 -71 -8 -7 -14
-25 -14 -40 0 -22 4 -26 22 -23 20 3 25 14 40 93 10 50 17 98 18 108 0 20 -25
23 -33 4z"/>
<path d="M1334 1373 c3 -21 8 -60 12 -88 9 -67 20 -95 39 -95 17 0 22 55 6 65
-5 3 -13 31 -16 63 -9 78 -14 92 -32 92 -11 0 -14 -8 -9 -37z"/>
<path d="M1512 1303 l3 -98 33 -3 c30 -3 32 -1 32 27 0 24 -4 31 -20 31 -18 0
-20 7 -20 70 0 56 -3 70 -15 70 -13 0 -15 -15 -13 -97z"/>
<path d="M1580 1307 c34 -93 44 -107 76 -107 20 0 24 5 24 30 0 22 -5 30 -18
30 -11 0 -24 11 -30 25 -15 33 -15 35 3 35 8 0 19 9 25 19 20 39 13 46 -49 47
l-60 1 29 -80z"/>
<path d="M570 1085 c0 -41 2 -45 24 -45 36 0 53 71 20 84 -36 14 -44 7 -44
-39z m44 9 c7 -19 -12 -47 -25 -38 -5 3 -9 16 -9 30 0 27 24 33 34 8z"/>
<path d="M662 1118 c-15 -15 -15 -51 0 -66 30 -30 71 -1 60 42 -9 35 -38 46
-60 24z m45 -28 c4 -21 -13 -44 -26 -36 -6 4 -11 18 -11 32 0 19 5 25 17 22
10 -2 19 -10 20 -18z"/>
<path d="M747 1123 c-10 -10 -8 -71 2 -78 5 -3 11 7 13 22 l4 28 12 -27 c18
-43 32 -33 31 20 -2 44 -2 45 -8 12 l-6 -35 -14 33 c-13 32 -22 38 -34 25z"/>
<path d="M842 1118 c-15 -15 -16 -50 0 -66 20 -20 58 -15 58 7 0 11 -5 23 -11
27 -8 4 -9 -1 -4 -16 6 -18 3 -21 -12 -18 -11 2 -19 14 -21 32 -3 26 -1 28 23
24 16 -4 24 -1 22 6 -5 16 -40 19 -55 4z"/>
<path d="M928 1104 c-14 -31 -1 -57 31 -62 14 -2 21 2 21 14 0 13 -3 14 -13 5
-17 -14 -27 -4 -27 27 0 21 3 23 27 17 23 -5 25 -4 14 9 -20 23 -40 19 -53
-10z"/>
<path d="M1010 1125 c-4 -22 -1 -77 4 -83 3 -3 6 4 6 16 0 13 6 22 15 22 8 0
15 -9 15 -20 0 -11 5 -20 10 -20 6 0 10 21 10 46 0 27 -4 43 -10 39 -5 -3 -10
-13 -10 -21 0 -22 -20 -17 -30 9 -5 12 -10 18 -10 12z"/>
<path d="M1090 1085 c0 -43 1 -45 28 -44 16 1 20 3 10 6 -10 2 -18 11 -18 18
0 7 8 16 18 18 16 4 16 5 0 6 -22 1 -24 21 -3 21 8 0 15 5 15 10 0 6 -11 10
-25 10 -23 0 -25 -4 -25 -45z"/>
<path d="M1167 1123 c-11 -10 -8 -83 3 -83 6 0 10 12 10 28 l1 27 15 -27 c22
-41 34 -34 33 20 -2 46 -2 46 -9 12 l-7 -35 -12 33 c-13 32 -21 38 -34 25z"/>
<path d="M1310 1085 c0 -27 2 -46 4 -44 8 8 10 78 3 85 -4 4 -7 -14 -7 -41z"/>
<path d="M1351 1083 c2 -45 2 -46 8 -13 l6 35 14 -32 c7 -18 17 -33 21 -33 19
0 28 74 11 85 -5 3 -11 -7 -13 -22 l-4 -28 -12 28 c-18 42 -32 32 -31 -20z"/>
<path d="M1438 1118 c7 -7 12 -27 12 -45 0 -18 5 -33 10 -33 6 0 10 16 10 35
0 19 5 35 10 35 6 0 10 5 10 10 0 6 -14 10 -32 10 -25 0 -29 -3 -20 -12z"/>
<path d="M1510 1085 c0 -43 1 -45 28 -44 26 0 27 0 4 10 -25 10 -21 29 6 30
12 0 9 4 -8 11 -25 11 -25 11 -2 15 30 6 28 23 -3 23 -23 0 -25 -4 -25 -45z"/>
<path d="M1587 1124 c-11 -11 -8 -84 3 -84 6 0 10 9 10 20 0 11 5 20 10 20 6
0 10 -6 10 -14 0 -8 4 -18 10 -21 6 -4 9 11 7 37 -2 35 -6 44 -22 46 -12 2
-24 0 -28 -4z m33 -24 c0 -5 -4 -10 -10 -10 -5 0 -10 5 -10 10 0 6 5 10 10 10
6 0 10 -4 10 -10z"/>
<path d="M1667 1124 c-4 -4 -7 -26 -6 -48 0 -23 3 -34 6 -26 2 8 7 22 10 30 3
11 8 8 19 -12 22 -42 34 -34 33 20 -1 29 -4 36 -6 20 -4 -25 -23 -41 -23 -20
0 15 -26 43 -33 36z"/>
<path d="M1773 1114 c-6 -10 -13 -31 -17 -47 -6 -25 -5 -27 13 -15 16 9 23 9
37 -3 16 -13 17 -12 11 4 -4 10 -7 24 -7 31 0 7 -6 21 -14 31 -13 18 -14 18
-23 -1z m17 -30 c0 -8 -5 -12 -10 -9 -6 4 -8 11 -5 16 9 14 15 11 15 -7z"/>
<path d="M1838 1118 c7 -7 12 -27 12 -45 0 -18 5 -33 10 -33 6 0 10 16 10 35
0 19 5 35 10 35 6 0 10 5 10 10 0 6 -14 10 -32 10 -25 0 -29 -3 -20 -12z"/>
<path d="M1910 1086 c0 -26 4 -45 8 -42 10 6 8 73 -2 83 -3 3 -6 -15 -6 -41z"/>
<path d="M1949 1109 c-16 -31 4 -71 33 -67 31 5 44 31 30 62 -14 32 -47 34
-63 5z m49 -26 c-3 -30 -25 -42 -34 -19 -9 22 2 46 21 46 12 0 15 -8 13 -27z"/>
<path d="M2041 1083 c2 -47 2 -47 9 -13 l7 35 12 -32 c18 -47 41 -43 41 7 0
43 -16 55 -23 18 -3 -22 -4 -22 -15 5 -18 42 -32 32 -31 -20z"/>
<path d="M2141 1099 c-11 -31 -15 -77 -4 -51 6 14 43 16 43 2 0 -5 4 -10 9
-10 13 0 -11 82 -26 87 -6 2 -16 -10 -22 -28z m25 -26 c-10 -10 -19 5 -10 18
6 11 8 11 12 0 2 -7 1 -15 -2 -18z"/>
<path d="M2216 1118 c-4 -9 -6 -29 -4 -45 2 -21 9 -29 28 -31 22 -3 23 -2 8
10 -9 7 -18 29 -20 48 -3 26 -6 31 -12 18z"/>
<path d="M2340 1114 c-12 -14 -11 -18 10 -34 14 -10 22 -22 18 -26 -4 -4 -15
-1 -24 7 -15 12 -17 12 -12 -1 7 -22 47 -25 55 -4 4 11 -2 23 -18 36 l-24 20
23 -5 c15 -4 22 -1 19 6 -6 19 -33 19 -47 1z"/>
<path d="M2422 1118 c-13 -13 -15 -37 -6 -62 8 -22 54 -21 54 0 0 13 -3 14
-13 5 -17 -14 -27 -4 -27 27 0 20 4 23 21 19 13 -3 19 -1 16 6 -5 17 -30 20
-45 5z"/>
<path d="M2537 1110 c-6 -23 -27 -27 -27 -5 0 8 -4 15 -10 15 -5 0 -10 -18
-10 -40 0 -22 5 -40 10 -40 6 0 10 9 10 20 0 11 7 20 15 20 8 0 15 -9 15 -20
0 -11 5 -20 10 -20 12 0 13 77 1 84 -5 3 -11 -3 -14 -14z"/>
<path d="M2587 1123 c-14 -14 -7 -74 9 -80 37 -14 70 41 44 73 -13 15 -42 19
-53 7z m41 -40 c-4 -33 -24 -41 -33 -14 -8 25 1 41 21 41 11 0 14 -8 12 -27z"/>
<path d="M2681 1116 c-7 -8 -11 -27 -9 -43 2 -22 9 -29 30 -31 23 -3 29 2 34
24 12 46 -28 82 -55 50z m39 -37 c0 -18 -5 -29 -14 -29 -20 0 -30 38 -16 55
17 21 30 9 30 -26z"/>
<path d="M2760 1086 c0 -44 1 -46 28 -45 16 1 20 3 10 6 -13 3 -18 14 -18 38
0 19 -4 37 -10 40 -6 4 -10 -12 -10 -39z"/>
</g>
</svg>
